<?xml version="1.0" standalone="no"?>
<!DOCTYPE svg PUBLIC "-//W3C//DTD SVG 20010904//EN"
 "http://www.w3.org/TR/2001/REC-SVG-20010904/DTD/svg10.dtd">
<svg version="1.0" xmlns="http://www.w3.org/2000/svg"
 width="260.000000pt" height="260.000000pt" viewBox="0 0 260.000000 260.000000"
 preserveAspectRatio="xMidYMid meet">
<metadata>
Created by potrace 1.14, written by Peter Selinger 2001-2017
</metadata>
<g transform="translate(0.000000,260.000000) scale(0.100000,-0.100000)"
fill="#000000" stroke="none">
<path d="M0 1300 l0 -1300 1300 0 1300 0 0 1300 0 1300 -1300 0 -1300 0 0
-1300z m960 870 c0 -13 -7 -20 -20 -20 -17 0 -20 -7 -20 -45 0 -41 -2 -45 -25
-45 -24 0 -25 -2 -25 -75 0 -68 -2 -75 -20 -75 -19 0 -20 -7 -20 -205 0 -198
1 -205 20 -205 18 0 20 -7 20 -70 0 -68 1 -70 25 -70 23 0 25 -4 25 -45 0 -38
3 -45 20 -45 17 0 20 -7 20 -45 0 -38 3 -45 20 -45 13 0 20 -7 20 -20 0 -16 7
-20 30 -20 23 0 30 -4 30 -20 0 -15 7 -20 25 -20 21 0 25 -5 25 -30 0 -23 4
-30 20 -30 15 0 20 -7 20 -25 0 -18 5 -25 20 -25 13 0 20 -7 20 -20 0 -15 7
-20 25 -20 18 0 25 -5 25 -20 0 -17 7 -20 50 -20 47 0 50 -2 50 -25 0 -23 4
-25 45 -25 38 0 45 -3 45 -20 0 -18 7 -20 65 -20 l65 0 0 -30 0 -30 210 0 210
0 0 30 0 30 65 0 c58 0 65 2 65 20 0 17 7 20 45 20 41 0 45 2 45 25 0 20 5 25
25 25 20 0 25 -5 25 -25 0 -20 -5 -25 -25 -25 -18 0 -25 -5 -25 -20 0 -15 -7
-20 -25 -20 -21 0 -25 -5 -25 -30 0 -23 -4 -30 -20 -30 -13 0 -20 -7 -20 -20
0 -13 -7 -20 -20 -20 -15 0 -20 -7 -20 -25 0 -20 -5 -25 -25 -25 -18 0 -25 -5
-25 -20 0 -13 -7 -20 -20 -20 -13 0 -20 -7 -20 -20 0 -17 -7 -20 -50 -20 -47
0 -50 -2 -50 -25 0 -23 -4 -25 -45 -25 -38 0 -45 -3 -45 -20 0 -18 -7 -20 -65
-20 l-65 0 0 -30 0 -30 -210 0 -210 0 0 30 0 30 -65 0 c-58 0 -65 2 -65 20 0
18 -7 20 -55 20 -52 0 -55 1 -55 25 0 23 -4 25 -40 25 -33 0 -40 3 -40 20 0
15 -7 20 -25 20 -18 0 -25 5 -25 20 0 13 -7 20 -20 20 -15 0 -20 7 -20 25 0
18 -5 25 -20 25 -13 0 -20 7 -20 20 0 16 -7 20 -35 20 -32 0 -35 2 -35 30 0
23 -4 30 -20 30 -13 0 -20 7 -20 20 0 13 -7 20 -20 20 -17 0 -20 7 -20 45 0
38 -3 45 -20 45 -17 0 -20 7 -20 45 0 41 -2 45 -25 45 -24 0 -25 2 -25 70 0
63 -2 70 -20 70 -19 0 -20 7 -20 205 0 198 1 205 20 205 18 0 20 7 20 75 0 73
1 75 25 75 23 0 25 4 25 45 0 38 3 45 20 45 17 0 20 7 20 40 0 33 3 40 20 40
16 0 20 7 20 30 0 23 4 30 20 30 15 0 20 7 20 25 0 22 4 25 35 25 28 0 35 4
35 20 0 13 7 20 20 20 13 0 20 7 20 20 0 13 7 20 20 20 15 0 20 7 20 25 0 20
5 25 25 25 18 0 25 5 25 20 0 13 7 20 20 20 13 0 20 -7 20 -20z"/>
</g>
</svg>
